{
	"buffers":[{
		"uri":"data:application/octet-stream;base64,",
		"byteLength":4896
	}],
	"asset":{
		"version":"2.0",
		"generator":"Maxon Cinema 4D 2026.0.0 (#200000219)"
	},
	"scenes":[{
		"nodes":[0]
	}],
	"nodes":[{
		"name":"Extrusión",
		"children":[1]
	},
	{
		"name":"Extrusión",
		"mesh":0
	}],
	"meshes":[{
		"name":"Extrusión",
		"primitives":[{
			"attributes":{
				"POSITION":1,
				"NORMAL":2,
				"TEXCOORD_0":3
			},
			"indices":0,
			"material":0
		}]
	}],
	"accessors":[{
		"bufferView":0,
		"type":"SCALAR",
		"componentType":5123,
		"count":144,
		"byteOffset":0,
		"min":[0],
		"max":[143]
	},
	{
		"bufferView":1,
		"type":"VEC3",
		"componentType":5126,
		"count":144,
		"byteOffset":0,
		"min":[0.05859375,
		0.0341796875,
		-0.30000001192092898],
		"max":[1.4052734375,
		1.423828125,
		0.0]
	},
	{
		"bufferView":1,
		"type":"VEC3",
		"componentType":5126,
		"count":144,
		"byteOffset":12,
		"min":[-1.0,
		-1.0,
		-1.0],
		"max":[1.0,
		1.0,
		1.0]
	},
	{
		"bufferView":1,
		"type":"VEC2",
		"componentType":5126,
		"count":144,
		"byteOffset":24,
		"min":[0.0,
		0.0],
		"max":[1.0,
		1.0]
	}],
	"bufferViews":[{
		"buffer":0,
		"byteOffset":0,
		"byteLength":288,
		"target":34963
	},
	{
		"buffer":0,
		"byteOffset":288,
		"byteLength":4608,
		"target":34962,
		"byteStride":32
	}],
	"materials":[{
		"pbrMetallicRoughness":{
			"baseColorFactor":[0.15614357590675355,
			0.15614357590675355,
			0.15614357590675355,
			1.0],
			"metallicFactor":1.0,
			"roughnessFactor":0.35
		},
		"emissiveFactor":[0.0,
		0.0,
		0.0],
		"alphaMode":"OPAQUE",
		"doubleSided":false,
		"name":"Mat"
	}]
}